<svg xmlns="http://www.w3.org/2000/svg" xmlns:xlink="http://www.w3.org/1999/xlink" width="276" height="52">
    <symbol id="a">
        <path d="M32.522 33.471c.004-.033-.472-1.1-.689-1.521-.51-.994-.85-1.183-2.227-1.28-.38-1.472-.464-2.824.27-3.73.57-.702.999-1.524.999-2.475v-.905c.005-.062.124-.145.194-.15.24-.016.462-.066.591-.285.087-.147.14-.315.196-.477.173-.5.31-1.046.57-1.492.615-1.057 1.1-2.135 1.032-3.391a37.25 37.25 0 00-.169-1.948c-.013-.124-.11-.223-.237-.216.012-.38.751-7.22.751-7.22L32.067 6.3c.371.436.547.627.545.626-.004-.01.974.447.969.437-.534-1.043-1.013-2.325-2.535-3.56-.958-.776-2.786-1.092-3.886-1.8.284-.03 1.997.397 2.226.564C26.999.824 25.96.973 23.893.909c.422-.04.993-.098 1.804-.23C24.684.023 23.884.055 22.98.012c-4.372-.207-4.841 2.096-5.385 2.046-2.387-.218-3.616.364-4.774 3.125.164.05 1.375-1.163 1.88-1.235-1.446.8-2.568 2.405-2.892 3.125 1.374-1.018.637-.7-.165 1.17-.393.914 1.059 7.049 1.084 7.38-.186-.064-.317.047-.333.193-.07.648-.133 1.297-.169 1.948-.069 1.256.417 2.334 1.033 3.39.26.447.396.994.569 1.493.056.162.11.33.195.477.13.219.352.269.592.285.068.005.182.083.193.137v.832c0 .982.54 1.989 1.233 2.627.5.46.485 1.294.426 1.974-.058.653-.138 1.14-.276 1.69-1.37.098-1.709.288-2.218 1.28-.217.42-.691 1.512-.68 1.59-2.964 1.034-5.546 1.338-7.136 2.175C1.634 38.095.353 42.602 0 53l23.015-.023L46 53c-.353-10.398-1.634-14.904-6.157-17.285-1.616-.85-4.28-1.181-7.321-2.244z"/>
    </symbol>
    <symbol id="b">
        <path d="M10.016 25.683c.05-.11.103-.216.156-.317.818 2.776 2.355 4.16 3.67 4.85-1.882-.621-4.93-2.101-3.826-4.533m24.916.34c1.425 1.8-.873 3.238-2.81 4.086 1.134-.785 1.88-2.122 2.81-4.087m-2.41 8.685c.004-.034-.472-1.146-.689-1.584-.391-.793-.682-1.093-1.415-1.237h-1.692a10.448 10.448 0 01-.074-.918c1.253.006 2.198-.175 2.967-.561 2.624-.717 5.364-1.272 4.907-5.075-.15-1.253-.39-2.618-.507-3.877-.162-1.725.096-3.162.31-4.932.438-3.613.09-4.36-.446-6.165C34.551 5.86 30.554-.132 24.018.002c-1.731.036-3.85 1.537-4.15 1.756-.316-.077-2.955-.959-5.76 2.065-3.257 3.508-4.42 8.696-4.13 13.403.166 2.702-.42 4.913-.745 7.528-.484 3.905 2.666 5.312 5.956 5.815.727.11 1.461.178 2.164.218-.009.37-.034.757-.079 1.1h-1.938c-.59.176-1.036.572-1.363 1.236-.217.438-.691 1.575-.68 1.656-2.964 1.077-5.546 1.393-7.136 2.265C1.634 39.524.353 42.171 0 53h46c-.353-10.83-1.634-13.476-6.157-15.956-1.616-.886-4.28-1.23-7.321-2.337z"/>
    </symbol>
    <symbol id="c">
        <path d="M39.843 35.998c4.523 2.487-1.616-.888 0 0C44.366 38.485 45.647 42.141 46 53H0c.353-10.859 1.634-14.515 6.157-17.002 1.59-.874 4.172-1.192 7.136-2.271-.011-.081.463-1.221.68-1.661.473-.962 1.194-1.365 2.241-1.348.167-.859.202-1.734.032-2.59a45.936 45.936 0 01-.812-1.114c-.467-.687-.741-1.962-.88-3.363-.011-.12-.095-.295-.187-.332-.175-.07-.38-.073-.573-.082a.755.755 0 01-.632-.445c-.193-.497-.38-.997-.584-1.49-.164-.398-.362-.782-.517-1.185-.1-.264-.157-.549-.22-.827-.1-.446-.222-.89-.277-1.342-.08-.662.104-1.289.336-1.895l.066-.044a.416.416 0 00.13-.187c-1.392-2.26-.408-7.074.484-9.363 1.114-2.857 3.263-5.004 6.09-5.916.869-.28 3.343-.561 4.253-.542.8.017 3.381.403 4.195.691a.53.53 0 01.02.008c2.833 1.036 4.601 2.458 4.849 5.252 2.415.975 2.732 5.176 2.279 7.51-.143.736-.392 1.552-.672 2.106l.008.091c.108.075.265.214.307.32.487.73.546 1.372.462 2.064-.054.452-.144.838-.244 1.283-.063.279-.193.608-.294.872-.154.403-.35.782-.514 1.181-.203.493-.45.92-.643 1.418a.756.756 0 01-.631.445c-.194.008-.398.01-.574.082-.092.037-.175.211-.187.332-.138 1.401-.334 2.652-.922 3.483-.382.54-.685.91-.832 1.092a6.095 6.095 0 00.09 2.56l-.014-.062c1.377.102 1.716.3 2.227 1.337.217.44.693 1.554.689 1.59 3.04 1.109 5.705 1.454 7.32 2.342zM17.382 12.101c0 .342.136.659.409.952.273.294.607.44 1.004.44.673 0 1.13-.42 1.37-1.258.255-.802.567-1.41.935-1.821.368-.412.942-.619 1.721-.619.666 0 1.21.205 1.63.613.422.408.633.91.633 1.504 0 .304-.07.586-.207.846-.139.26-.309.496-.51.707-.202.212-.53.526-.983.942-.517.475-.928.885-1.232 1.23a4.143 4.143 0 00-.733 1.203c-.184.457-.276.997-.276 1.62 0 .498.125.873.377 1.126.251.252.56.378.93.378.707 0 1.129-.386 1.263-1.158.078-.364.137-.618.176-.763.039-.145.093-.29.164-.434a2.47 2.47 0 01.324-.48c.145-.174.338-.376.58-.606a64.812 64.812 0 001.81-1.743 5.07 5.07 0 00.872-1.231c.244-.475.366-1.028.366-1.66 0-.802-.214-1.544-.643-2.227-.428-.683-1.035-1.223-1.822-1.62-.786-.398-1.692-.597-2.719-.597-1.105 0-2.071.238-2.9.713-.829.475-1.459 1.075-1.891 1.799-.432.724-.648 1.439-.648 2.144zm5.135 12.258c.39 0 .734-.134 1.031-.402.298-.268.447-.637.447-1.106 0-.422-.142-.777-.427-1.065a1.419 1.419 0 00-1.05-.432c-.424 0-.781.144-1.072.432a1.44 1.44 0 00-.436 1.065c0 .476.15.846.45 1.11.302.265.654.398 1.057.398z"/>
    </symbol>
    <use xlink:href="#a" fill="#F9F9F9"/>
    <use xlink:href="#a" x="47" fill="#CBCBCB"/>
    <use xlink:href="#b" x="93" fill="#F9F9F9"/>
    <use xlink:href="#b" x="139" fill="#CBCBCB"/>
    <use xlink:href="#c" x="185" fill="#F9F9F9"/>
    <use xlink:href="#c" x="231" fill="#CBCBCB"/>
</svg>
